<svg width="72" height="30" viewBox="0 0 72 30" fill="none" xmlns="http://www.w3.org/2000/svg">
<path d="M69.699 7.18438C68.7827 8.16088 75.1836 7.99813 69.8608 8.14732C71.7338 9.19163 68.8366 8.37788 69.9955 9.13738C70.7906 9.70701 69.9416 9.17807 69.699 9.65276C70.6828 10.2631 70.7906 11.5515 68.5536 11.1718C65.4678 11.8499 67.6777 12.7993 67.8799 14.7523C67.4082 15.7966 66.2224 16.1492 65.5756 17.6411C66.5862 18.5362 64.4301 19.1601 66.1146 19.2415C66.3032 19.7162 66.2359 19.6619 66.9501 19.1465C66.8557 19.906 65.6834 20.1095 66.7479 20.7469C65.6699 21.4929 66.721 22.2252 67.4082 22.1981C66.8288 22.6592 67.0174 23.4866 66.3706 23.7442C66.5323 23.9884 66.8827 24.3274 66.5458 24.5444C65.3195 24.992 64.9287 25.3446 64.7401 25.6837C65.3599 25.7922 65.1309 25.5888 65.5082 26.1177C65.0365 26.511 63.9181 25.9278 63.5947 26.6602C66.2359 27.1756 61.6677 26.3754 62.3145 27.6774C57.2208 26.7687 60.4684 28.9116 57.5172 29.549C56.1562 29.5219 55.6441 30.295 55.159 29.8745C56.3583 29.3456 56.1697 29.766 44.7694 29.0472C46.0631 27.6503 42.7212 29.6439 42.3169 28.5318C42.1417 28.03 41.6297 29.0472 40.4169 28.9387C37.3579 28.9794 39.2715 29.2642 37.1423 28.8166C36.8459 29.7118 35.148 28.2199 34.3125 28.3419C32.9784 27.5689 33.3018 24.4359 33.0862 28.6268C29.9869 28.3148 28.1138 28.1114 22.7236 28.6403C19.6108 29.0879 12.7113 27.4604 10.3666 28.6403C7.96796 27.8401 5.3672 28.0029 4.24873 26.8365C4.49129 25.8329 3.39978 25.8464 4.19483 24.8971C3.48063 24.4902 3.9927 23.5408 3.15722 23.5815C3.81752 23.6357 4.00618 21.4793 3.52106 20.8419C5.01684 19.4178 4.86861 20.557 5.21897 19.5263C3.64234 19.7162 4.42392 19.6619 3.61539 18.5905C4.1005 18.6312 1.12243 17.7496 2.21394 17.1664C3.97923 18.0751 2.90119 16.3933 3.62886 15.7288C3.23808 15.4711 2.95509 16.0407 2.22742 15.3897C1.17633 13.3418 1.27066 15.1185 0.906821 11.9313C1.10895 11.8635 2.03876 12.3924 0.596885 11.321C0.475606 10.4258 0.799017 9.47645 1.33804 8.97463C-3.54008 5.81456 6.33743 3.12918 8.37223 3.08849C10.7574 2.35611 3.96575 3.40043 0.704689 3.22411C1.14938 2.31542 3.76362 2.35611 5.17854 1.81361C6.9573 1.93567 9.05947 0.782857 11.2155 1.40673C10.9595 2.04417 11.9702 2.81724 12.2801 1.77292C14.8404 2.20692 18.7618 1.73224 20.0285 2.36967C20.0689 2.87149 19.0313 3.53605 20.4462 3.57674C23.2222 2.30186 20.6079 2.91218 22.2789 1.7458C22.2115 0.877795 21.7264 0.660794 35.2019 0.484481C38.2878 -0.397084 38.4495 0.172543 40.5247 0.281043C48.3 0.00979227 45.9688 0.199668 52.8412 1.14905C50.6043 -0.139396 57.3555 1.54236 58.2449 0.945608C57.4903 1.28467 56.8435 0.606544 57.8676 1.84074C59.9698 1.92211 61.0343 1.05411 63.3925 2.24761C65.2791 1.05411 64.8883 1.01342 66.411 2.05774C67.8529 2.36967 68.055 6.05869 67.0174 3.61743C66.3571 2.16624 66.1954 4.11924 65.2522 2.6138C64.5245 3.63099 68.3246 5.84169 69.2005 6.53338C69.4565 6.22144 69.7395 6.09937 70.3189 6.75038C70.3324 6.669 70.1168 6.73681 69.699 7.18438ZM42.1687 27.4739C42.7616 28.0707 42.9637 27.5282 42.4921 27.1213C43.5971 27.8537 43.8262 26.0906 42.1687 27.4739ZM32.7493 4.60749C32.1834 4.14637 32.4664 4.17349 31.4692 4.55324C32.2238 4.72956 32.2373 4.64818 31.4287 4.81093C32.3585 5.82812 34.016 3.31905 32.7493 4.60749ZM43.7318 7.49632C42.7616 7.90319 41.8857 7.74044 40.902 7.6455C42.546 8.52707 44.7155 8.48638 44.4999 7.48275C44.1091 7.57769 44.4999 8.28294 43.7318 7.49632ZM15.3795 4.25487C15.2447 3.64455 19.5164 4.91943 20.6079 4.15993C19.732 4.28199 13.0213 2.51886 15.3795 4.25487ZM29.0975 26.3211C28.1812 27.0671 27.9386 26.1719 27.7365 27.0671C28.2755 27.6774 30.755 27.3654 29.0975 26.3211ZM33.4501 4.89231C34.9054 4.91943 35.2827 4.98725 35.1884 4.51256C35.148 3.84799 33.5444 4.21418 33.4501 4.89231ZM30.9167 4.33624C30.1755 4.40406 28.9627 3.84799 28.0329 4.55324C29.2188 4.58037 30.2159 4.89231 30.9167 4.33624ZM31.4018 26.6331C31.2131 26.1584 30.189 26.1855 29.7578 26.4161C31.3209 27.4333 30.9706 27.4197 31.4018 26.6331ZM38.1395 28.1792C40.2282 28.03 38.8402 27.7181 38.4225 27.3248C37.4927 26.6195 38.4495 27.7181 38.1395 28.1792ZM37.1962 26.4839C36.6168 25.643 35.2692 27.4604 36.6976 27.2027C36.5359 26.7823 36.9806 26.7144 37.1962 26.4839ZM20.8505 10.9683C21.2413 11.1989 22.2789 11.5786 22.3867 11.1311C22.5215 10.5615 20.4867 10.7513 20.8505 10.9683ZM40.5921 27.4468C39.8913 28.0707 40.0396 28.5589 40.9424 28.2741C41.0367 27.9079 40.7268 27.7588 40.5921 27.4468ZM22.1846 4.32268C21.2143 4.14637 21.2952 4.09212 21.403 4.70243C22.0902 4.89231 21.9016 4.96012 22.1846 4.32268ZM22.764 8.16088C23.896 8.7712 23.7343 7.6455 23.2896 7.84894C23.1144 7.93032 22.9661 8.03882 22.764 8.16088ZM8.39918 16.2577C6.51261 16.4476 6.68779 16.6917 7.57717 16.5697C7.94101 16.7324 8.14314 16.5832 8.39918 16.2577ZM21.4569 11.7956C21.9016 12.3788 21.8073 12.3246 22.8044 12.094C22.3732 11.9177 21.942 11.8228 21.4569 11.7956ZM26.4024 26.9993C26.1868 26.8094 26.3215 26.7144 25.513 26.9857C25.2705 27.0535 25.4591 27.6231 26.4024 26.9993ZM17.9129 6.94025C18.7214 7.23863 18.7214 7.23863 18.9235 7.03519C18.4923 6.72325 18.4923 6.72325 17.9129 6.94025ZM26.5237 4.91943C26.7797 4.933 27.1705 4.70243 27.0357 4.53968C26.7932 4.25487 26.1194 4.45831 26.5237 4.91943ZM21.1065 9.66632C21.3356 9.89689 21.2548 10.0054 21.9555 10.0461C22.2519 10.0596 22.1037 9.5307 21.1065 9.66632ZM14.7192 27.2841C14.4766 27.7045 14.7057 27.7588 14.8674 27.6774C15.2447 27.4739 16.471 28.03 14.7192 27.2841ZM11.1482 16.9494C11.4581 15.9051 10.5418 16.4205 10.8113 16.9765C10.9191 16.963 11.0269 16.9494 11.1482 16.9494ZM13.0078 3.31905C14.4092 3.5903 14.2341 3.21055 13.2099 3.1563C13.1695 3.14274 13.1291 3.21055 13.0078 3.31905ZM13.4525 12.84C13.8298 13.0976 13.8433 13.0976 14.1397 12.8671C13.9241 12.7043 13.695 12.8264 13.4525 12.84ZM54.6874 2.97999C54.9434 2.96643 55.159 2.95286 55.469 2.9393C54.8221 2.7223 54.8221 2.7223 54.6874 2.97999ZM50.3752 2.81724C50.3618 2.96643 51.4128 2.79011 50.9682 2.57311C50.7256 2.77655 50.6178 2.55955 50.3752 2.81724ZM37.3579 7.94388C37.2636 8.03882 37.1828 8.09307 37.1558 8.16088C37.1019 8.43213 37.7892 8.58132 37.3579 7.94388ZM47.0198 3.10205C47.195 2.58668 47.0064 2.36967 46.5617 2.6138C46.6964 2.76299 46.8042 2.87149 47.0198 3.10205ZM57.342 2.46461C57.4499 2.73586 57.6385 2.68161 57.8676 2.62736C57.6655 2.35611 57.6655 2.35611 57.342 2.46461ZM58.1236 2.62736C58.4066 2.7223 58.6087 2.74943 58.9456 2.58668C58.5953 2.54599 58.4066 2.34255 58.1236 2.62736ZM48.2731 2.74943C48.7851 2.96643 48.8525 3.03424 48.9064 2.89861C48.9603 2.77655 48.7178 2.49174 48.2731 2.74943ZM32.2238 3.6988C31.9139 3.40043 31.9139 3.40043 31.4018 3.52249C31.7117 3.5903 31.9273 3.63099 32.2238 3.6988ZM39.8509 8.12019C39.824 7.74044 39.2445 7.79469 39.3119 8.12019C39.4871 8.12019 39.6622 8.12019 39.8509 8.12019ZM38.6381 1.23042C38.6651 1.36605 38.5573 1.33892 39.3119 1.29823C39.3119 1.21686 39.4197 1.23042 38.6381 1.23042ZM56.2236 3.64455C55.9676 3.53605 55.7654 3.52249 55.7789 3.75305C55.7789 3.95649 56.1697 3.98362 56.2236 3.64455ZM31.7117 3.12918C31.6443 3.06136 31.4018 2.74943 31.3209 2.95286C31.1997 3.22411 31.6039 3.1563 31.7117 3.12918ZM2.29479 14.1826C2.18699 14.047 2.06571 13.8436 1.76925 14.0199C2.01181 14.1013 2.14656 14.142 2.29479 14.1826ZM26.9549 26.8501C26.874 26.5653 26.591 26.6738 26.6045 26.7687C26.6045 26.9043 26.7797 26.8636 26.9549 26.8501ZM39.7566 26.7958C39.514 26.728 39.4871 26.6602 39.3793 26.8772C39.4736 27.0399 39.5814 26.8772 39.7566 26.7958ZM35.7544 1.25755C35.9834 1.40673 35.9834 1.40673 36.1182 1.23042C35.9834 1.23042 35.8756 1.24398 35.7544 1.25755ZM65.306 2.08486C65.05 2.00349 64.8883 2.01705 64.6997 2.24761C64.9422 2.2883 65.1039 2.31542 65.306 2.08486ZM63.0556 2.6138C62.7592 2.53243 62.5705 2.42392 62.3414 2.58668C62.5571 2.74943 62.7592 2.66805 63.0556 2.6138ZM45.578 3.29193C45.7397 3.03424 45.7262 3.12918 45.6184 2.9393C45.4702 3.12918 45.4971 3.03424 45.578 3.29193ZM47.8553 7.41494C48.2057 7.56413 48.4078 7.57769 48.7717 7.41494C48.4078 7.41494 48.2057 7.41494 47.8553 7.41494ZM36.1856 7.13013C36.1047 7.18438 36.0373 7.2115 36.0239 7.26575C35.9834 7.38782 36.4281 7.59125 36.1856 7.13013ZM46.6156 7.60482C46.373 7.67263 46.373 7.67263 46.4539 7.93032C46.6156 7.88963 46.5886 7.74044 46.6156 7.60482ZM68.7827 9.67989C68.6345 9.84264 68.5536 9.84264 68.8366 10.0054C69.0118 9.93757 68.8501 9.81551 68.7827 9.67989ZM44.7425 3.10205C44.7829 2.97999 44.8907 2.74943 44.7021 2.79011C44.5943 2.8308 44.473 2.96643 44.7425 3.10205ZM15.932 27.1891C15.8511 27.0264 15.9185 27.0399 15.6759 27.1213C15.7972 27.3383 15.7298 27.3112 15.932 27.1891ZM13.3447 27.2705C13.1964 27.2298 13.2369 27.1756 13.1425 27.4197C13.2908 27.4739 13.2503 27.5146 13.3447 27.2705ZM30.7819 27.4197C30.6876 27.3383 30.5663 27.2841 30.5663 27.4333C30.6876 27.6367 30.7415 27.5011 30.7819 27.4197ZM48.5156 28.681C48.5156 28.9251 49.0816 28.6946 48.839 28.681C48.7312 28.681 48.6234 28.681 48.5156 28.681ZM35.7409 4.26843C35.66 4.44474 35.6196 4.37693 35.8756 4.55324C35.943 4.43118 35.9834 4.49899 35.7409 4.26843Z" fill="url(#paint0_linear_102_859)"/>
<defs>
<linearGradient id="paint0_linear_102_859" x1="5.5" y1="30" x2="62" y2="30" gradientUnits="userSpaceOnUse">
<stop offset="0.695858" stop-color="#0C67D2"/>
<stop offset="1" stop-color="#DA0A0A" stop-opacity="0.58"/>
</linearGradient>
</defs>
</svg>
