<svg width="73" height="30" viewBox="0 0 73 30" fill="none" xmlns="http://www.w3.org/2000/svg">
<path id="Vector" d="M69.7684 7.18438C68.8521 8.16088 75.2529 7.99813 69.9301 8.14732C71.8032 9.19163 68.906 8.37788 70.0648 9.13738C70.8599 9.70701 70.0109 9.17807 69.7684 9.65276C70.7521 10.2631 70.8599 11.5515 68.623 11.1718C65.5371 11.8499 67.7471 12.7993 67.9492 14.7523C67.4776 15.7966 66.2917 16.1492 65.6449 17.6411C66.6555 18.5362 64.4995 19.1601 66.1839 19.2415C66.3726 19.7162 66.3052 19.6619 67.0194 19.1465C66.9251 19.906 65.7527 20.1095 66.8173 20.7469C65.7392 21.4929 66.7903 22.2252 67.4776 22.1981C66.8981 22.6592 67.0868 23.4866 66.4399 23.7442C66.6016 23.9884 66.952 24.3274 66.6151 24.5444C65.3889 24.992 64.9981 25.3446 64.8094 25.6837C65.4293 25.7922 65.2002 25.5888 65.5775 26.1177C65.1059 26.511 63.9874 25.9278 63.664 26.6602C66.3052 27.1756 61.737 26.3754 62.3838 27.6774C57.2901 26.7687 60.5377 28.9116 57.5866 29.549C56.2255 29.5219 55.7135 30.295 55.2284 29.8745C56.4277 29.3456 56.239 29.766 44.8388 29.0472C46.1324 27.6503 42.7905 29.6439 42.3862 28.5318C42.2111 28.03 41.699 29.0472 40.4862 28.9387C37.4273 28.9794 39.3408 29.2642 37.2117 28.8166C36.9152 29.7118 35.2173 28.2199 34.3818 28.3419C33.0478 27.5689 33.3712 24.4359 33.1556 28.6268C30.0562 28.3148 28.1831 28.1114 22.7929 28.6403C19.6801 29.0879 12.7807 27.4604 10.4359 28.6403C8.0373 27.8401 5.43653 28.0029 4.31807 26.8365C4.56063 25.8329 3.46912 25.8464 4.26417 24.8971C3.54997 24.4902 4.06204 23.5408 3.22656 23.5815C3.88686 23.6357 4.07551 21.4793 3.5904 20.8419C5.08617 19.4178 4.93794 20.557 5.2883 19.5263C3.71168 19.7162 4.49325 19.6619 3.68472 18.5905C4.16984 18.6312 1.19176 17.7496 2.28328 17.1664C4.04856 18.0751 2.97052 16.3933 3.6982 15.7288C3.30741 15.4711 3.02443 16.0407 2.29675 15.3897C1.24567 13.3418 1.33999 15.1185 0.976157 11.9313C1.17829 11.8635 2.1081 12.3924 0.666221 11.321C0.544942 10.4258 0.868353 9.47645 1.40737 8.97463C-3.47075 5.81456 6.40677 3.12918 8.44156 3.08849C10.8267 2.35611 4.03509 3.40043 0.774025 3.22411C1.21871 2.31542 3.83295 2.35611 5.24788 1.81361C7.02664 1.93567 9.12881 0.782857 11.2849 1.40673C11.0289 2.04417 12.0395 2.81724 12.3494 1.77292C14.9098 2.20692 18.8311 1.73224 20.0978 2.36967C20.1383 2.87149 19.1007 3.53605 20.5156 3.57674C23.2915 2.30186 20.6773 2.91218 22.3482 1.7458C22.2809 0.877795 21.7957 0.660794 35.2712 0.484481C38.3571 -0.397084 38.5188 0.172543 40.594 0.281043C48.3694 0.00979227 46.0381 0.199668 52.9106 1.14905C50.6737 -0.139396 57.4249 1.54236 58.3142 0.945608C57.5596 1.28467 56.9128 0.606544 57.9369 1.84074C60.0391 1.92211 61.1037 1.05411 63.4619 2.24761C65.3484 1.05411 64.9576 1.01342 66.4804 2.05774C67.9222 2.36967 68.1244 6.05869 67.0868 3.61743C66.4265 2.16624 66.2648 4.11924 65.3215 2.6138C64.5938 3.63099 68.3939 5.84169 69.2698 6.53338C69.5258 6.22144 69.8088 6.09937 70.3883 6.75038C70.4017 6.669 70.1861 6.73681 69.7684 7.18438ZM42.238 27.4739C42.8309 28.0707 43.0331 27.5282 42.5614 27.1213C43.6664 27.8537 43.8955 26.0906 42.238 27.4739ZM32.8187 4.60749C32.2527 4.14637 32.5357 4.17349 31.5385 4.55324C32.2931 4.72956 32.3066 4.64818 31.4981 4.81093C32.4279 5.82812 34.0854 3.31905 32.8187 4.60749ZM43.8012 7.49632C42.8309 7.90319 41.955 7.74044 40.9713 7.6455C42.6153 8.52707 44.7849 8.48638 44.5693 7.48275C44.1785 7.57769 44.5693 8.28294 43.8012 7.49632ZM15.4488 4.25487C15.314 3.64455 19.5858 4.91943 20.6773 4.15993C19.8014 4.28199 13.0906 2.51886 15.4488 4.25487ZM29.1668 26.3211C28.2505 27.0671 28.0079 26.1719 27.8058 27.0671C28.3448 27.6774 30.8243 27.3654 29.1668 26.3211ZM33.5194 4.89231C34.9747 4.91943 35.3521 4.98725 35.2577 4.51256C35.2173 3.84799 33.6137 4.21418 33.5194 4.89231ZM30.986 4.33624C30.2449 4.40406 29.0321 3.84799 28.1023 4.55324C29.2881 4.58037 30.2853 4.89231 30.986 4.33624ZM31.4711 26.6331C31.2825 26.1584 30.2583 26.1855 29.8271 26.4161C31.3903 27.4333 31.0399 27.4197 31.4711 26.6331ZM38.2089 28.1792C40.2976 28.03 38.9096 27.7181 38.4918 27.3248C37.562 26.6195 38.5188 27.7181 38.2089 28.1792ZM37.2656 26.4839C36.6861 25.643 35.3386 27.4604 36.767 27.2027C36.6053 26.7823 37.05 26.7144 37.2656 26.4839ZM20.9198 10.9683C21.3106 11.1989 22.3482 11.5786 22.456 11.1311C22.5908 10.5615 20.556 10.7513 20.9198 10.9683ZM40.6614 27.4468C39.9607 28.0707 40.1089 28.5589 41.0117 28.2741C41.1061 27.9079 40.7961 27.7588 40.6614 27.4468ZM22.2539 4.32268C21.2837 4.14637 21.3645 4.09212 21.4723 4.70243C22.1596 4.89231 21.9709 4.96012 22.2539 4.32268ZM22.8334 8.16088C23.9653 8.7712 23.8036 7.6455 23.3589 7.84894C23.1837 7.93032 23.0355 8.03882 22.8334 8.16088ZM8.46851 16.2577C6.58195 16.4476 6.75713 16.6917 7.64651 16.5697C8.01035 16.7324 8.21248 16.5832 8.46851 16.2577ZM21.5262 11.7956C21.9709 12.3788 21.8766 12.3246 22.8738 12.094C22.4426 11.9177 22.0114 11.8228 21.5262 11.7956ZM26.4717 26.9993C26.2561 26.8094 26.3909 26.7144 25.5823 26.9857C25.3398 27.0535 25.5284 27.6231 26.4717 26.9993ZM17.9822 6.94025C18.7907 7.23863 18.7907 7.23863 18.9928 7.03519C18.5616 6.72325 18.5616 6.72325 17.9822 6.94025ZM26.593 4.91943C26.849 4.933 27.2398 4.70243 27.1051 4.53968C26.8625 4.25487 26.1887 4.45831 26.593 4.91943ZM21.1759 9.66632C21.405 9.89689 21.3241 10.0054 22.0248 10.0461C22.3213 10.0596 22.1731 9.5307 21.1759 9.66632ZM14.7885 27.2841C14.5459 27.7045 14.775 27.7588 14.9367 27.6774C15.314 27.4739 16.5403 28.03 14.7885 27.2841ZM11.2175 16.9494C11.5274 15.9051 10.6111 16.4205 10.8806 16.9765C10.9884 16.963 11.0962 16.9494 11.2175 16.9494ZM13.0771 3.31905C14.4786 3.5903 14.3034 3.21055 13.2793 3.1563C13.2388 3.14274 13.1984 3.21055 13.0771 3.31905ZM13.5218 12.84C13.8991 13.0976 13.9126 13.0976 14.2091 12.8671C13.9935 12.7043 13.7644 12.8264 13.5218 12.84ZM54.7567 2.97999C55.0128 2.96643 55.2284 2.95286 55.5383 2.9393C54.8915 2.7223 54.8915 2.7223 54.7567 2.97999ZM50.4446 2.81724C50.4311 2.96643 51.4822 2.79011 51.0375 2.57311C50.7949 2.77655 50.6871 2.55955 50.4446 2.81724ZM37.4273 7.94388C37.333 8.03882 37.2521 8.09307 37.2252 8.16088C37.1712 8.43213 37.8585 8.58132 37.4273 7.94388ZM47.0892 3.10205C47.2644 2.58668 47.0757 2.36967 46.631 2.6138C46.7658 2.76299 46.8736 2.87149 47.0892 3.10205ZM57.4114 2.46461C57.5192 2.73586 57.7078 2.68161 57.9369 2.62736C57.7348 2.35611 57.7348 2.35611 57.4114 2.46461ZM58.193 2.62736C58.4759 2.7223 58.6781 2.74943 59.015 2.58668C58.6646 2.54599 58.4759 2.34255 58.193 2.62736ZM48.3424 2.74943C48.8545 2.96643 48.9218 3.03424 48.9757 2.89861C49.0297 2.77655 48.7871 2.49174 48.3424 2.74943ZM32.2931 3.6988C31.9832 3.40043 31.9832 3.40043 31.4711 3.52249C31.7811 3.5903 31.9967 3.63099 32.2931 3.6988ZM39.9202 8.12019C39.8933 7.74044 39.3138 7.79469 39.3812 8.12019C39.5564 8.12019 39.7316 8.12019 39.9202 8.12019ZM38.7074 1.23042C38.7344 1.36605 38.6266 1.33892 39.3812 1.29823C39.3812 1.21686 39.489 1.23042 38.7074 1.23042ZM56.2929 3.64455C56.0369 3.53605 55.8348 3.52249 55.8482 3.75305C55.8482 3.95649 56.239 3.98362 56.2929 3.64455ZM31.7811 3.12918C31.7137 3.06136 31.4711 2.74943 31.3903 2.95286C31.269 3.22411 31.6733 3.1563 31.7811 3.12918ZM2.36413 14.1826C2.25633 14.047 2.13505 13.8436 1.83859 14.0199C2.08114 14.1013 2.2159 14.142 2.36413 14.1826ZM27.0242 26.8501C26.9434 26.5653 26.6604 26.6738 26.6739 26.7687C26.6739 26.9043 26.849 26.8636 27.0242 26.8501ZM39.8259 26.7958C39.5834 26.728 39.5564 26.6602 39.4486 26.8772C39.5429 27.0399 39.6507 26.8772 39.8259 26.7958ZM35.8237 1.25755C36.0528 1.40673 36.0528 1.40673 36.1875 1.23042C36.0528 1.23042 35.945 1.24398 35.8237 1.25755ZM65.3754 2.08486C65.1193 2.00349 64.9576 2.01705 64.769 2.24761C65.0116 2.2883 65.1732 2.31542 65.3754 2.08486ZM63.125 2.6138C62.8285 2.53243 62.6399 2.42392 62.4108 2.58668C62.6264 2.74943 62.8285 2.66805 63.125 2.6138ZM45.6473 3.29193C45.809 3.03424 45.7955 3.12918 45.6877 2.9393C45.5395 3.12918 45.5665 3.03424 45.6473 3.29193ZM47.9247 7.41494C48.275 7.56413 48.4772 7.57769 48.841 7.41494C48.4772 7.41494 48.275 7.41494 47.9247 7.41494ZM36.2549 7.13013C36.1741 7.18438 36.1067 7.2115 36.0932 7.26575C36.0528 7.38782 36.4975 7.59125 36.2549 7.13013ZM46.6849 7.60482C46.4424 7.67263 46.4424 7.67263 46.5232 7.93032C46.6849 7.88963 46.658 7.74044 46.6849 7.60482ZM68.8521 9.67989C68.7038 9.84264 68.623 9.84264 68.906 10.0054C69.0811 9.93757 68.9194 9.81551 68.8521 9.67989ZM44.8118 3.10205C44.8523 2.97999 44.9601 2.74943 44.7714 2.79011C44.6636 2.8308 44.5423 2.96643 44.8118 3.10205ZM16.0013 27.1891C15.9204 27.0264 15.9878 27.0399 15.7453 27.1213C15.8665 27.3383 15.7992 27.3112 16.0013 27.1891ZM13.414 27.2705C13.2658 27.2298 13.3062 27.1756 13.2119 27.4197C13.3601 27.4739 13.3197 27.5146 13.414 27.2705ZM30.8513 27.4197C30.7569 27.3383 30.6356 27.2841 30.6356 27.4333C30.7569 27.6367 30.8108 27.5011 30.8513 27.4197ZM48.585 28.681C48.585 28.9251 49.1509 28.6946 48.9084 28.681C48.8006 28.681 48.6928 28.681 48.585 28.681ZM35.8102 4.26843C35.7294 4.44474 35.6889 4.37693 35.945 4.55324C36.0124 4.43118 36.0528 4.49899 35.8102 4.26843Z" fill="url(#paint0_linear_89_894)"/>
<defs>
<linearGradient id="paint0_linear_89_894" x1="5.56934" y1="30" x2="62.0693" y2="30" gradientUnits="userSpaceOnUse">
<stop offset="0.695858" stop-color="#0C67D2"/>
<stop offset="1" stop-color="#DA0A0A" stop-opacity="0.58"/>
</linearGradient>
</defs>
</svg>
