<svg width="172" height="71" viewBox="0 0 172 71" fill="none" xmlns="http://www.w3.org/2000/svg">
<path d="M165.568 16.8844C163.4 19.1793 178.54 18.7968 165.95 19.1475C170.381 21.6018 163.528 19.6893 166.269 21.4743C168.15 22.813 166.141 21.5699 165.568 22.6855C167.895 24.1198 168.15 27.1478 162.858 26.2554C155.559 27.8491 160.787 30.0803 161.265 34.6701C160.149 37.1244 157.344 37.9532 155.814 41.4593C158.205 43.563 153.105 45.0292 157.089 45.2204C157.535 46.336 157.376 46.2085 159.065 44.9973C158.842 46.7823 156.069 47.2604 158.587 48.7585C156.037 50.5115 158.524 52.2327 160.149 52.169C158.779 53.2527 159.225 55.197 157.695 55.8026C158.077 56.3764 158.906 57.1732 158.109 57.6832C155.209 58.735 154.284 59.5638 153.838 60.3606C155.304 60.6156 154.762 60.1375 155.655 61.3806C154.539 62.3049 151.894 60.9343 151.129 62.6555C157.376 63.8668 146.571 61.9862 148.101 65.0461C136.052 62.9105 143.734 67.9466 136.754 69.4447C133.534 69.381 132.323 71.1978 131.176 70.2097C134.012 68.9666 133.566 69.9547 106.601 68.2654C109.661 64.9824 101.756 69.6678 100.8 67.0542C100.385 65.8748 99.174 68.2654 96.3054 68.0104C89.07 68.106 93.5961 68.7754 88.56 67.7235C87.8588 69.8272 83.8426 66.3211 81.8664 66.6079C78.7109 64.7911 79.4759 57.4282 78.9659 67.2773C71.6349 66.5442 67.2044 66.0661 54.4547 67.3092C47.0918 68.361 30.7723 64.5361 25.2262 67.3092C19.5526 65.4286 13.4009 65.8111 10.7554 63.0699C11.3291 60.7112 8.74733 60.7431 10.6279 58.5119C8.93857 57.5557 10.1498 55.3245 8.1736 55.4201C9.73543 55.5476 10.1817 50.4797 9.0342 48.9816C12.5722 45.6348 12.2216 48.3122 13.0503 45.8898C9.32106 46.336 11.1698 46.2085 9.25732 43.6905C10.4048 43.7861 3.36061 41.7143 5.94241 40.3437C10.1179 42.4793 7.56799 38.5269 9.28919 36.9651C8.36484 36.3594 7.69549 37.6982 5.97429 36.1682C3.48811 31.3552 3.71123 35.5307 2.85063 28.0403C3.32874 27.8809 5.52805 29.124 2.11753 26.606C1.83066 24.5023 2.59564 22.2711 3.8706 21.0918C-7.66781 13.6651 15.6959 7.35405 20.5089 7.25843C26.1506 5.53723 10.086 7.99153 2.37252 7.57717C3.42436 5.4416 9.60793 5.53723 12.9547 4.26226C17.1621 4.54913 22.1344 1.83984 27.2343 3.30604C26.6287 4.80412 29.0192 6.62094 29.7523 4.16664C35.8084 5.18661 45.0838 4.07102 48.0799 5.5691C48.1755 6.74844 45.7212 8.31027 49.068 8.40589C55.6341 5.40973 49.4505 6.84406 53.4029 4.10289C53.2435 2.06295 52.0961 1.55297 83.9701 1.13861C91.2693 -0.933208 91.6518 0.405502 96.5604 0.660495C114.952 0.0230134 109.438 0.46925 125.693 2.70043C120.402 -0.327601 136.371 3.62478 138.475 2.22232C136.69 3.01918 135.16 1.42547 137.582 4.32601C142.555 4.51726 145.073 2.47732 150.651 5.28223C155.113 2.47732 154.189 2.38169 157.79 4.836C161.201 5.5691 161.679 14.2388 159.225 8.50151C157.663 5.09099 157.28 9.68085 155.049 6.14283C153.328 8.53339 162.317 13.7289 164.388 15.3544C164.994 14.6213 165.663 14.3345 167.034 15.8644C167.066 15.6732 166.556 15.8325 165.568 16.8844ZM100.449 64.568C101.851 65.9705 102.33 64.6955 101.214 63.7393C103.828 65.4605 104.37 61.3168 100.449 64.568ZM78.169 10.8283C76.8303 9.7446 77.4997 9.80835 75.141 10.7008C76.926 11.1152 76.9578 10.9239 75.0454 11.3064C77.2447 13.697 81.1652 7.80028 78.169 10.8283ZM104.146 17.6175C101.851 18.5737 99.7797 18.1912 97.4529 17.9681C101.341 20.0399 106.473 19.9443 105.963 17.5856C105.039 17.8087 105.963 19.4662 104.146 17.6175ZM37.0834 9.99959C36.7646 8.56526 46.8687 11.5614 49.4505 9.77648C47.3787 10.0633 31.5054 5.91971 37.0834 9.99959ZM69.5312 61.8587C67.3637 63.6118 66.79 61.5081 66.3119 63.6118C67.5869 65.0461 73.4517 64.313 69.5312 61.8587ZM79.8265 11.4977C83.2689 11.5614 84.1614 11.7208 83.9382 10.6052C83.8426 9.04337 80.0496 9.90397 79.8265 11.4977ZM73.8342 10.1908C72.0811 10.3502 69.2124 9.04337 67.0131 10.7008C69.818 10.7646 72.1767 11.4977 73.8342 10.1908ZM74.9816 62.5918C74.5354 61.4762 72.113 61.54 71.093 62.0818C74.7904 64.4724 73.9617 64.4405 74.9816 62.5918ZM90.9187 66.2254C95.8591 65.8748 92.5761 65.1417 91.588 64.2174C89.3887 62.5599 91.6518 65.1417 90.9187 66.2254ZM88.6875 62.2412C87.3169 60.265 84.1295 64.5361 87.5081 63.9305C87.1256 62.9424 88.1775 62.783 88.6875 62.2412ZM50.0242 25.7773C50.9486 26.3191 53.4029 27.2116 53.6579 26.1597C53.9766 24.821 49.1636 25.2673 50.0242 25.7773ZM96.7198 64.5042C95.0623 65.9705 95.4129 67.1179 97.5485 66.4486C97.7716 65.588 97.0385 65.2374 96.7198 64.5042ZM53.1798 10.159C50.8848 9.7446 51.0761 9.61711 51.3311 11.0514C52.9567 11.4977 52.5104 11.657 53.1798 10.159ZM54.5504 19.1793C57.2278 20.6137 56.8453 17.9681 55.7934 18.4462C55.3791 18.6375 55.0285 18.8925 54.5504 19.1793ZM20.5726 38.2081C16.1102 38.6544 16.5246 39.2281 18.6283 38.9412C19.4889 39.3237 19.967 38.9731 20.5726 38.2081ZM51.4586 27.7216C52.5104 29.0922 52.2873 28.9647 54.646 28.4228C53.626 28.0084 52.606 27.7853 51.4586 27.7216ZM63.1564 63.4524C62.6464 63.0062 62.9651 62.783 61.0527 63.4205C60.4789 63.5799 60.9252 64.9186 63.1564 63.4524ZM43.0757 16.3107C44.9881 17.0119 44.9881 17.0119 45.4662 16.5338C44.4463 15.8007 44.4463 15.8007 43.0757 16.3107ZM63.4432 11.5614C64.0488 11.5933 64.9732 11.0514 64.6544 10.669C64.0807 9.99959 62.487 10.4777 63.4432 11.5614ZM50.6299 22.7173C51.1717 23.2592 50.9805 23.5142 52.6379 23.6098C53.3391 23.6417 52.9885 22.3986 50.6299 22.7173ZM35.5215 64.1218C34.9478 65.1099 35.4897 65.2374 35.8722 65.0461C36.7646 64.568 39.6652 65.8748 35.5215 64.1218ZM27.0749 39.8337C27.808 37.3794 25.6406 38.5906 26.2781 39.8975C26.5331 39.8656 26.7881 39.8337 27.0749 39.8337ZM31.4735 7.80028C34.7884 8.43777 34.3741 7.54529 31.9517 7.4178C31.856 7.38592 31.7604 7.54529 31.4735 7.80028ZM32.5254 30.1759C33.4179 30.7815 33.4497 30.7815 34.151 30.2396C33.641 29.8571 33.0991 30.144 32.5254 30.1759ZM130.06 7.00343C130.666 6.97156 131.176 6.93968 131.909 6.90781C130.379 6.39783 130.379 6.39783 130.06 7.00343ZM119.86 6.62094C119.828 6.97156 122.315 6.5572 121.263 6.04721C120.689 6.52532 120.434 6.01534 119.86 6.62094ZM89.07 18.6693C88.8469 18.8925 88.6556 19.02 88.5919 19.1793C88.4644 19.8168 90.0899 20.1674 89.07 18.6693ZM111.924 7.2903C112.338 6.07908 111.892 5.5691 110.84 6.14283C111.159 6.49345 111.414 6.74844 111.924 7.2903ZM136.339 5.79222C136.594 6.4297 137.04 6.3022 137.582 6.17471C137.104 5.53723 137.104 5.53723 136.339 5.79222ZM138.188 6.17471C138.857 6.39783 139.335 6.46157 140.132 6.07909C139.303 5.98346 138.857 5.50535 138.188 6.17471ZM114.888 6.46157C116.099 6.97156 116.259 7.13093 116.386 6.81219C116.514 6.52532 115.94 5.85597 114.888 6.46157ZM76.926 8.69276C76.1929 7.99153 76.1928 7.99153 74.9816 8.2784C75.7147 8.43777 76.2247 8.53339 76.926 8.69276ZM94.9667 19.0837C94.9029 18.1912 93.5323 18.3187 93.6917 19.0837C94.1061 19.0837 94.5204 19.0837 94.9667 19.0837ZM92.098 2.89168C92.1618 3.21042 91.9068 3.14667 93.6917 3.05105C93.6917 2.85981 93.9467 2.89168 92.098 2.89168ZM133.694 8.56526C133.088 8.31027 132.61 8.2784 132.642 8.82025C132.642 9.29837 133.566 9.36211 133.694 8.56526ZM75.7147 7.35405C75.5554 7.19468 74.9816 6.46157 74.7904 6.93968C74.5035 7.57717 75.4597 7.4178 75.7147 7.35405ZM6.13366 33.3314C5.87866 33.0127 5.5918 32.5346 4.89057 32.9489C5.4643 33.1402 5.78304 33.2358 6.13366 33.3314ZM64.4632 63.1018C64.2719 62.4324 63.6026 62.6874 63.6345 62.9105C63.6345 63.2293 64.0488 63.1337 64.4632 63.1018ZM94.7436 62.9743C94.1698 62.8149 94.1061 62.6555 93.8511 63.1655C94.0742 63.548 94.3292 63.1655 94.7436 62.9743ZM85.277 2.95543C85.8188 3.30604 85.8188 3.30604 86.1376 2.89168C85.8188 2.89168 85.5638 2.92355 85.277 2.95543ZM155.177 4.89974C154.571 4.7085 154.189 4.74037 153.742 5.28223C154.316 5.37786 154.699 5.4416 155.177 4.89974ZM149.854 6.14283C149.153 5.95159 148.706 5.6966 148.164 6.07909C148.674 6.46157 149.153 6.27033 149.854 6.14283ZM108.513 7.73654C108.896 7.13093 108.864 7.35405 108.609 6.90781C108.258 7.35405 108.322 7.13093 108.513 7.73654ZM113.9 17.4263C114.729 17.7769 115.207 17.8087 116.067 17.4263C115.207 17.4263 114.729 17.4263 113.9 17.4263ZM86.2969 16.7569C86.1057 16.8844 85.9463 16.9481 85.9144 17.0756C85.8188 17.3625 86.8707 17.8406 86.2969 16.7569ZM110.967 17.8725C110.394 18.0319 110.394 18.0319 110.585 18.6375C110.967 18.5418 110.904 18.1912 110.967 17.8725ZM163.4 22.7492C163.05 23.1317 162.858 23.1317 163.528 23.5142C163.942 23.3548 163.56 23.068 163.4 22.7492ZM106.537 7.2903C106.633 7.00343 106.888 6.46157 106.441 6.5572C106.186 6.65282 105.899 6.97156 106.537 7.2903ZM38.3902 63.8986C38.199 63.5162 38.3583 63.548 37.7846 63.7393C38.0715 64.2493 37.9121 64.1855 38.3902 63.8986ZM32.2704 64.0899C31.9198 63.9943 32.0154 63.8668 31.7923 64.4405C32.1429 64.568 32.0473 64.6636 32.2704 64.0899ZM73.5154 64.4405C73.2923 64.2493 73.0054 64.1218 73.0054 64.4724C73.2923 64.9505 73.4198 64.6317 73.5154 64.4405ZM115.462 67.4048C115.462 67.9785 116.8 67.4367 116.227 67.4048C115.972 67.4048 115.717 67.4048 115.462 67.4048ZM85.2451 10.0315C85.0538 10.4458 84.9582 10.2865 85.5638 10.7008C85.7232 10.414 85.8188 10.5733 85.2451 10.0315Z" fill="url(#paint0_linear_102_845)"/>
<defs>
<linearGradient id="paint0_linear_102_845" x1="85.858" y1="0" x2="85.858" y2="70.5046" gradientUnits="userSpaceOnUse">
<stop stop-color="#0C67D2"/>
<stop offset="1" stop-color="#DA0A0A" stop-opacity="0.58"/>
</linearGradient>
</defs>
</svg>
