<svg width="48" height="61" viewBox="0 0 48 61" fill="none" xmlns="http://www.w3.org/2000/svg">
<path fill-rule="evenodd" clip-rule="evenodd" d="M0.064057 23.6625C0.064055 44.7617 23.625 60.7668 23.625 60.7668C23.625 60.7668 47.1859 45.2491 47.1859 23.7031C47.1913 17.4543 44.7142 11.4594 40.2994 7.03704C35.8847 2.6147 29.894 0.127233 23.6453 0.121843C17.3965 0.116458 11.4016 2.5936 6.97925 7.00832C2.55692 11.423 0.0694428 17.4137 0.064057 23.6625ZM23.564 3.76686C34.8859 3.76686 44.064 12.7212 44.064 23.7669C44.064 34.8126 34.8859 43.7669 23.564 43.7669C12.2422 43.7669 3.06403 34.8126 3.06403 23.7669C3.06403 12.7212 12.2422 3.76686 23.564 3.76686Z" fill="url(#paint0_linear_89_823)"/>
<defs>
<linearGradient id="paint0_linear_89_823" x1="6.56362" y1="9.13592" x2="40.7595" y2="43.3318" gradientUnits="userSpaceOnUse">
<stop stop-color="#A18681"/>
<stop offset="1" stop-color="#473E3D"/>
</linearGradient>
</defs>
</svg>
